<svg width="113" height="43" viewBox="0 0 113 43" fill="none" xmlns="http://www.w3.org/2000/svg">
<g clip-path="url(#clip0_384_43)">
<path d="M45.7159 10.2002H63.0031V17.4293H52.9451V24.6585H63.0031V31.8876H45.7159V10.2002Z" fill="black"/>
<path d="M66.4604 10.2002H83.7476V16.4864H73.6896V17.7437H83.7476V32.202H66.4604V25.6014H76.5184V24.3442H66.4604V10.2002Z" fill="black"/>
<path d="M87.2051 10.2002H104.492V16.4864H94.4342V17.7437H104.492V32.202H87.2051V25.6014H97.2631V24.3442H87.2051V10.2002Z" fill="black"/>
<path d="M34.5622 38.9589L18.7909 43.3312L3.0631 38.9651L-0.441772 -0.346191H38.0708L34.5622 38.9589Z" fill="#264DE4"/>
<path d="M18.8145 39.9893L31.5584 36.4562L34.5567 2.86816H18.8145V39.9893Z" fill="#2965F1"/>
<path d="M18.8144 17.4482H7.59302L8.02514 22.2696H18.8144V17.4482Z" fill="#EBEBEB"/>
<path d="M18.7979 7.68945H6.72485L7.16313 12.5109H18.8146V7.68945H18.7979Z" fill="#EBEBEB"/>
<path d="M18.7933 29.9753L13.4238 28.5254L13.0805 24.6802H10.4713H8.2406L8.91607 32.2504L18.7923 34.9921L18.8145 34.986V29.9697L18.7933 29.9753Z" fill="#EBEBEB"/>
<path d="M25.5916 12.5109L25.1529 17.448H18.7979V22.2693H24.7348L24.1752 28.5223L18.7979 29.9737V34.9897L28.6819 32.2503L28.7544 31.4358L29.8874 18.7427L30.005 17.448L30.8754 7.68945H18.7979V12.5109H25.5916Z" fill="white"/>
</g>
<defs>
<clipPath id="clip0_384_43">
<rect width="113" height="43" fill="white"/>
</clipPath>
</defs>
</svg>
