<svg width="113" height="43" viewBox="0 0 113 43" fill="none" xmlns="http://www.w3.org/2000/svg">
<g clip-path="url(#clip0_384_37)">
<path d="M40 9.4751H45.7V15.1051H50.913V9.4751H56.613V26.5251H50.913V20.8251H45.7V26.5251H40V9.4751ZM64.107 15.1301H59.08V9.4761H74.816V15.1301H69.796V26.5271H64.096V15.1301H64.107ZM77.314 9.4751H83.257L86.913 15.4751L90.565 9.4751H96.5V26.5251H90.824V18.0731L86.904 24.1361H86.806L82.9 18.0741V26.5261H77.324L77.314 9.4751ZM99.344 9.4751H105.044V20.9001H113.059V26.5361H99.345L99.344 9.4751Z" fill="black"/>
<path d="M0 0H38L34.5384 38.6952L18.9778 43L3.45924 38.7012L0 0Z" fill="#E44D26"/>
<path d="M31.9506 36.4788L35 3H19V40L31.9506 36.4788Z" fill="#F16529"/>
<path d="M12.6556 17.6492L12.2181 12.7668H19V8H7L8.29064 22.4173H19V17.6504L12.6556 17.6492ZM8.49124 24.8019L9.16194 32.2892L18.9662 35L18.9879 34.994V30.0346L18.9674 30.0406L13.6501 28.5961L13.3094 24.7922H10.7196L8.49124 24.8019Z" fill="#EBEBEB"/>
<path d="M30.0067 18.9382L30.124 17.6576H19V22.4238H24.8931L24.3372 28.6066L19 30.0412V35L28.8117 32.2919L28.8842 31.4855L30.0067 18.9382ZM19.0109 12.7782H30.571L31 8H19.0109V12.7542V12.7782Z" fill="white"/>
</g>
<defs>
<clipPath id="clip0_384_37">
<rect width="113" height="43" fill="white"/>
</clipPath>
</defs>
</svg>
