<svg width="1280" height="720" viewBox="0 0 1280 720" fill="none" xmlns="http://www.w3.org/2000/svg">
<g clip-path="url(#clip0_379_35)">
<rect width="1280" height="720" fill="white"/>
<rect x="-0.5" width="1280" height="720" fill="#FCF6A0"/>
<path d="M88.5 60.5V746" stroke="#FF5050"/>
<path d="M88.5 60.5V746" stroke="#FF5050"/>
<path d="M93.5 63.5V732.5" stroke="#FF5050"/>
<path d="M93.5 63.5V732.5" stroke="#FF5050"/>
<path d="M-10 97.5H1292" stroke="#FF5050"/>
<path d="M-10 97.5H1292" stroke="#7EA531"/>
<path d="M-10 340H1292" stroke="#FF5050"/>
<path d="M-10 340H1292" stroke="#7EA531"/>
<path d="M-10 583H1292" stroke="#FF5050"/>
<path d="M-10 583H1292" stroke="#7EA531"/>
<path d="M-10 219H1292" stroke="#FF5050"/>
<path d="M-10 219H1292" stroke="#7EA531"/>
<path d="M-10 461.5H1292" stroke="#FF5050"/>
<path d="M-10 461.5H1292" stroke="#7EA531"/>
<path d="M-10 704.5H1292" stroke="#FF5050"/>
<path d="M-10 704.5H1292" stroke="#7EA531"/>
<path d="M-10 158H1292" stroke="#FF5050"/>
<path d="M-10 158H1292" stroke="#7EA531"/>
<path d="M-10 400.5H1292" stroke="#FF5050"/>
<path d="M-10 400.5H1292" stroke="#7EA531"/>
<path d="M-10 643.5H1292" stroke="#FF5050"/>
<path d="M-10 643.5H1292" stroke="#7EA531"/>
<path d="M-10 279.5H1292" stroke="#FF5050"/>
<path d="M-10 279.5H1292" stroke="#7EA531"/>
<path d="M-10 522H1292" stroke="#FF5050"/>
<path d="M-10 522H1292" stroke="#7EA531"/>
<path d="M-10 128H1292" stroke="#FF5050"/>
<path d="M-10 128H1292" stroke="#7EA531"/>
<path d="M-10 370.5H1292" stroke="#FF5050"/>
<path d="M-10 370.5H1292" stroke="#7EA531"/>
<path d="M-10 613.5H1292" stroke="#FF5050"/>
<path d="M-10 613.5H1292" stroke="#7EA531"/>
<path d="M-10 249.5H1292" stroke="#FF5050"/>
<path d="M-10 249.5H1292" stroke="#7EA531"/>
<path d="M-10 492H1292" stroke="#FF5050"/>
<path d="M-10 492H1292" stroke="#7EA531"/>
<path d="M-10 188.5H1292" stroke="#FF5050"/>
<path d="M-10 188.5H1292" stroke="#7EA531"/>
<path d="M-10 431H1292" stroke="#FF5050"/>
<path d="M-10 431H1292" stroke="#7EA531"/>
<path d="M-10 674H1292" stroke="#FF5050"/>
<path d="M-10 674H1292" stroke="#7EA531"/>
<path d="M-10 310H1292" stroke="#FF5050"/>
<path d="M-10 310H1292" stroke="#7EA531"/>
<path d="M-10 552.5H1292" stroke="#FF5050"/>
<path d="M-10 552.5H1292" stroke="#7EA531"/>
<rect x="-0.5" width="1280" height="26.6667" fill="#222A35"/>
<rect x="-0.5" y="27" width="1280" height="40" fill="black"/>
</g>
<defs>
<clipPath id="clip0_379_35">
<rect width="1280" height="720" fill="white"/>
</clipPath>
</defs>
</svg>
