<svg width="26" height="26" viewBox="0 0 26 26" fill="none" xmlns="http://www.w3.org/2000/svg">
<path d="M5.6875 0C5.90299 0 6.10965 0.0856024 6.26202 0.237976C6.4144 0.390349 6.5 0.597012 6.5 0.8125V1.625H19.5V0.8125C19.5 0.597012 19.5856 0.390349 19.738 0.237976C19.8903 0.0856024 20.097 0 20.3125 0C20.528 0 20.7347 0.0856024 20.887 0.237976C21.0394 0.390349 21.125 0.597012 21.125 0.8125V1.625H22.75C23.612 1.625 24.4386 1.96741 25.0481 2.5769C25.6576 3.1864 26 4.01305 26 4.875V22.75C26 23.612 25.6576 24.4386 25.0481 25.0481C24.4386 25.6576 23.612 26 22.75 26H3.25C2.38805 26 1.5614 25.6576 0.951903 25.0481C0.34241 24.4386 0 23.612 0 22.75V8.125H26V6.5H0V4.875C0 4.01305 0.34241 3.1864 0.951903 2.5769C1.5614 1.96741 2.38805 1.625 3.25 1.625H4.875V0.8125C4.875 0.597012 4.9606 0.390349 5.11298 0.237976C5.26535 0.0856024 5.47201 0 5.6875 0Z" fill="#333333"/>
</svg>
