<svg width="26" height="26" viewBox="0 0 26 26" fill="none" xmlns="http://www.w3.org/2000/svg">
<path d="M20.8877 0.237157C20.7353 0.0848363 20.5287 -0.000732422 20.3132 -0.000732422C20.0978 -0.000732422 19.8912 0.0848363 19.7388 0.237157L17.0624 2.91353L23.0863 8.93741L25.7627 6.26266C25.8383 6.18718 25.8984 6.09752 25.9393 5.99881C25.9803 5.9001 26.0014 5.79428 26.0014 5.68741C26.0014 5.58053 25.9803 5.47471 25.9393 5.376C25.8984 5.27729 25.8383 5.18763 25.7627 5.11216L20.8877 0.237157ZM21.9374 10.0863L15.9136 4.06241L5.35105 14.6249H5.68743C5.90292 14.6249 6.10958 14.7105 6.26195 14.8629C6.41433 15.0153 6.49993 15.2219 6.49993 15.4374V16.2499H7.31243C7.52792 16.2499 7.73458 16.3355 7.88695 16.4879C8.03933 16.6403 8.12493 16.8469 8.12493 17.0624V17.8749H8.93743C9.15292 17.8749 9.35958 17.9605 9.51195 18.1129C9.66433 18.2653 9.74993 18.4719 9.74993 18.6874V19.4999H10.5624C10.7779 19.4999 10.9846 19.5855 11.137 19.7379C11.2893 19.8903 11.3749 20.0969 11.3749 20.3124V20.6488L21.9374 10.0863ZM9.80193 22.2218C9.76774 22.1309 9.75012 22.0345 9.74993 21.9374V21.1249H8.93743C8.72194 21.1249 8.51528 21.0393 8.3629 20.8869C8.21053 20.7346 8.12493 20.5279 8.12493 20.3124V19.4999H7.31243C7.09694 19.4999 6.89028 19.4143 6.7379 19.2619C6.58553 19.1096 6.49993 18.9029 6.49993 18.6874V17.8749H5.68743C5.47194 17.8749 5.26528 17.7893 5.11291 17.6369C4.96053 17.4846 4.87493 17.2779 4.87493 17.0624V16.2499H4.06243C3.96529 16.2497 3.86897 16.2321 3.77805 16.1979L3.48718 16.4872C3.40975 16.5651 3.34894 16.658 3.30843 16.7602L0.058429 24.8852C-0.000673324 25.0328 -0.0151415 25.1946 0.0168181 25.3504C0.0487777 25.5062 0.12576 25.6492 0.23822 25.7616C0.350681 25.8741 0.493674 25.9511 0.649473 25.983C0.805272 26.015 0.967025 26.0005 1.11468 25.9414L9.23968 22.6914C9.34183 22.6509 9.4347 22.5901 9.51268 22.5127L9.80193 22.2218Z" fill="#333333"/>
</svg>
