<svg width="26" height="20" viewBox="0 0 26 20" fill="none" xmlns="http://www.w3.org/2000/svg">
<path d="M0.08125 2.77688C0.24508 2.05902 0.647815 1.41807 1.2235 0.959001C1.79918 0.499931 2.51369 0.24995 3.25 0.25H22.75C23.4863 0.24995 24.2008 0.499931 24.7765 0.959001C25.3522 1.41807 25.7549 2.05902 25.9187 2.77688L13 10.6727L0.08125 2.77688ZM0 4.63263V16.1766L9.42988 10.3949L0 4.63263ZM10.9866 11.3488L0.310375 17.8926C0.574156 18.4488 0.990481 18.9187 1.5109 19.2475C2.03131 19.5763 2.63441 19.7506 3.25 19.75H22.75C23.3655 19.7501 23.9684 19.5755 24.4885 19.2464C25.0086 18.9173 25.4246 18.4473 25.688 17.891L15.0118 11.3471L13 12.5773L10.9866 11.3488ZM16.5701 10.3965L26 16.1766V4.63263L16.5701 10.3949V10.3965Z" fill="#333333"/>
</svg>
