<svg width="20" height="26" viewBox="0 0 20 26" fill="none" xmlns="http://www.w3.org/2000/svg">
<path d="M10 26C10 26 19.75 16.7603 19.75 9.75C19.75 7.16414 18.7228 4.68419 16.8943 2.85571C15.0658 1.02723 12.5859 0 10 0C7.41414 0 4.93419 1.02723 3.10571 2.85571C1.27723 4.68419 0.25 7.16414 0.25 9.75C0.25 16.7603 10 26 10 26ZM10 14.625C8.70707 14.625 7.46709 14.1114 6.55285 13.1971C5.63861 12.2829 5.125 11.0429 5.125 9.75C5.125 8.45707 5.63861 7.21709 6.55285 6.30285C7.46709 5.38861 8.70707 4.875 10 4.875C11.2929 4.875 12.5329 5.38861 13.4471 6.30285C14.3614 7.21709 14.875 8.45707 14.875 9.75C14.875 11.0429 14.3614 12.2829 13.4471 13.1971C12.5329 14.1114 11.2929 14.625 10 14.625Z" fill="#333333"/>
</svg>
