<svg width="27" height="27" viewBox="0 0 27 27" fill="none" xmlns="http://www.w3.org/2000/svg">
<path d="M2.5625 26.625C2.5625 26.625 0.375 26.625 0.375 24.4375C0.375 22.25 2.5625 15.6875 13.5 15.6875C24.4375 15.6875 26.625 22.25 26.625 24.4375C26.625 26.625 24.4375 26.625 24.4375 26.625H2.5625ZM13.5 13.5C15.2405 13.5 16.9097 12.8086 18.1404 11.5779C19.3711 10.3472 20.0625 8.67798 20.0625 6.9375C20.0625 5.19702 19.3711 3.52782 18.1404 2.29711C16.9097 1.0664 15.2405 0.375 13.5 0.375C11.7595 0.375 10.0903 1.0664 8.85961 2.29711C7.6289 3.52782 6.9375 5.19702 6.9375 6.9375C6.9375 8.67798 7.6289 10.3472 8.85961 11.5779C10.0903 12.8086 11.7595 13.5 13.5 13.5Z" fill="#333333"/>
</svg>
