<?xml version="1.0" standalone="no"?>
<!DOCTYPE svg PUBLIC "-//W3C//DTD SVG 20010904//EN"
 "http://www.w3.org/TR/2001/REC-SVG-20010904/DTD/svg10.dtd">
<svg version="1.0" xmlns="http://www.w3.org/2000/svg"
 width="512.000000pt" height="512.000000pt" viewBox="0 0 512.000000 512.000000"
 preserveAspectRatio="xMidYMid meet">

<g transform="translate(0.000000,512.000000) scale(0.100000,-0.100000)"
fill="#000000" stroke="none">
<path d="M1233 5106 c-219 -53 -383 -261 -383 -486 0 -270 230 -500 500 -500
131 0 254 53 351 149 199 199 199 503 0 702 -126 126 -299 176 -468 135z"/>
<path d="M4480 5114 c-201 -39 -373 -188 -434 -376 -5 -17 -31 -18 -356 -18
-332 0 -353 -1 -390 -20 -26 -13 -47 -34 -60 -60 -20 -38 -20 -57 -20 -985 l0
-945 -110 0 -110 0 0 -150 0 -150 110 0 110 0 0 -945 c0 -928 0 -947 20 -985
37 -73 45 -74 404 -80 l318 -5 98 -170 c61 -104 111 -180 131 -195 l32 -25
274 -3 c263 -3 275 -2 311 18 42 24 51 37 180 260 118 206 132 234 132 270 0
36 -14 64 -132 270 -129 223 -138 236 -180 260 -36 20 -48 21 -311 18 l-274
-3 -32 -25 c-20 -15 -70 -91 -131 -195 l-98 -170 -221 -3 -221 -2 0 855 0 855
250 0 250 0 0 -140 c0 -166 13 -206 80 -240 37 -19 58 -20 470 -20 412 0 433
1 470 20 26 13 47 34 60 60 19 37 20 58 20 470 0 412 -1 433 -20 470 -13 26
-34 47 -60 60 -37 19 -58 20 -470 20 -412 0 -433 -1 -470 -20 -67 -34 -80 -74
-80 -240 l0 -140 -250 0 -250 0 0 855 0 855 260 0 c239 0 261 -1 266 -17 52
-160 190 -299 352 -355 95 -32 249 -32 343 0 166 57 294 185 351 350 32 95 32
249 0 344 -57 164 -183 291 -348 349 -58 20 -210 33 -264 23z"/>
<path d="M660 4074 c-252 -86 -438 -246 -555 -479 -102 -203 -100 -182 -100
-910 l0 -630 24 -38 c13 -21 42 -50 64 -65 34 -23 52 -27 107 -27 55 0 73 4
107 27 22 15 51 44 64 65 l24 38 5 530 c6 593 3 570 78 613 22 12 54 22 71 22
51 0 108 -35 131 -80 18 -36 20 -58 20 -280 l0 -240 650 0 650 0 0 240 c0 275
5 297 78 338 49 27 91 28 142 2 77 -39 74 -20 80 -615 l5 -530 24 -38 c13 -21
42 -50 64 -65 34 -23 52 -27 107 -27 55 0 73 4 107 27 22 15 51 44 64 65 l24
38 0 630 c0 622 0 631 -23 715 -85 324 -332 583 -645 679 l-69 21 -57 -56
c-113 -109 -251 -180 -409 -210 -244 -47 -515 35 -694 210 -31 31 -58 56 -60
56 -2 0 -37 -12 -78 -26z"/>
<path d="M700 1267 c0 -1185 -4 -1113 75 -1192 98 -98 252 -98 350 0 77 76 75
59 75 757 0 588 1 621 19 656 22 43 84 82 130 82 51 0 108 -35 131 -80 19 -38
20 -58 20 -658 0 -698 -2 -681 75 -757 98 -98 252 -98 350 0 79 79 75 7 75
1192 l0 1053 -650 0 -650 0 0 -1053z"/>
</g>
</svg>
