<svg width="26" height="26" viewBox="0 0 26 26" fill="none" xmlns="http://www.w3.org/2000/svg">
<path fill-rule="evenodd" clip-rule="evenodd" d="M3.06316 0.830492C3.34749 0.546586 3.68892 0.326349 4.0648 0.184375C4.44069 0.0424018 4.84246 -0.018066 5.24348 0.00697882C5.64451 0.0320237 6.03563 0.142009 6.39093 0.329647C6.74624 0.517285 7.05761 0.77829 7.30441 1.09537L10.2213 4.84262C10.7559 5.52999 10.9444 6.42537 10.7332 7.27037L9.84428 10.8291C9.79833 11.0134 9.80081 11.2065 9.85149 11.3896C9.90217 11.5727 9.99933 11.7395 10.1335 11.874L14.1262 15.8666C14.2608 16.0011 14.4279 16.0984 14.6113 16.1491C14.7947 16.1998 14.9881 16.2021 15.1727 16.1559L18.7298 15.267C19.1468 15.1627 19.582 15.1546 20.0026 15.2433C20.4232 15.332 20.8181 15.5151 21.1575 15.7789L24.9048 18.6941C26.2519 19.7422 26.3754 21.7329 25.1697 22.937L23.4894 24.6172C22.2869 25.8197 20.4897 26.3479 18.8143 25.758C14.5262 24.2492 10.6329 21.7944 7.42303 18.5755C4.20438 15.3661 1.74952 11.4734 0.240533 7.18587C-0.347717 5.51212 0.180408 3.71324 1.38291 2.51074L3.06316 0.830492Z" fill="#333333"/>
</svg>
