<svg width="615" height="613" viewBox="0 0 615 613" fill="none" xmlns="http://www.w3.org/2000/svg">
<g clip-path="url(#clip0_13_328)">
<path d="M261.467 74.9401L261.498 74.8175C264.173 75.5225 267.187 75.3079 269.831 74.3884C272.168 73.5608 274.259 72.2429 276.258 70.7717C276.904 70.3119 277.426 69.7602 278.072 70.4345C278.533 70.8943 278.687 71.5992 279.025 72.1203C279.671 73.1011 280.501 73.9899 281.516 74.6336C284.806 76.8098 289.142 76.4113 292.924 75.3079C302.211 72.672 310.206 66.6032 316.633 59.4004C320.599 54.9561 324.013 50.052 327.241 45.0254C328.441 53.3623 331.239 61.4233 335.298 68.81C337.635 73.0398 340.402 77.0243 343.539 80.7024C344.984 82.3881 347.014 83.9513 348.151 85.8516C349.504 88.0891 349.781 90.6024 350.365 93.0851C350.95 95.6597 351.688 98.2037 352.579 100.717C354.332 105.713 356.638 110.525 359.467 115C360.359 116.41 361.712 117.973 363.342 117.605C364.326 117.391 365.002 116.533 365.617 115.736C369.369 110.862 374.627 105.989 380.716 106.786C386.743 107.552 390.771 113.958 390.863 119.996C390.925 124.869 388.987 129.774 385.543 133.237C382.653 136.149 378.748 138.049 374.658 138.57C374.627 140.808 375.211 143.076 376.318 145.037C376.687 145.712 376.995 146.141 377.61 146.263C376.134 159.014 374.965 171.764 373.489 184.484C373.489 184.638 373.459 184.791 373.428 184.913C372.751 190.829 372.013 196.683 371.091 202.537C360.205 211.518 345.814 216.851 331.854 214.828C324.689 213.786 317.248 210.169 314.173 203.825C350.089 191.779 357.93 158.156 357.93 158.156C349.658 168.73 338.096 177.006 325.058 180.285C322.229 180.99 319.339 181.45 316.417 181.665C313.127 181.91 309.806 181.818 306.547 181.419C306.516 181.419 306.516 181.419 306.485 181.419C305.87 181.327 305.255 181.266 304.64 181.143C304.609 181.143 304.548 181.143 304.517 181.113C298.029 180.009 291.787 177.619 286.405 173.879C277.457 167.627 271.215 158.094 267.371 147.888C263.558 137.681 261.959 126.8 260.883 115.95C259.53 102.28 259.591 88.5182 261.467 74.9401ZM309.068 115.061C312.112 115.061 314.572 112.609 314.572 109.575C314.572 106.541 312.112 104.089 309.068 104.089C306.024 104.089 303.564 106.541 303.564 109.575C303.564 112.609 306.055 115.061 309.068 115.061ZM300.796 88.6714C300.95 89.7749 301.965 90.5411 303.041 90.3879C308.576 89.6523 314.449 90.5411 319.523 92.8705C319.8 92.9931 320.077 93.0544 320.353 93.0544C321.122 93.0544 321.829 92.6253 322.168 91.8897C322.629 90.8783 322.198 89.7136 321.184 89.2538C315.433 86.5872 308.791 85.6064 302.488 86.434C301.411 86.5872 300.643 87.568 300.796 88.6714ZM270.077 115.061C273.121 115.061 275.581 112.609 275.581 109.575C275.581 106.541 273.121 104.089 270.077 104.089C267.033 104.089 264.573 106.541 264.573 109.575C264.573 112.609 267.033 115.061 270.077 115.061Z" fill="#FFC094"/>
<path d="M450.149 479.524C458.144 481.241 466.17 482.681 474.257 483.662C480.223 484.367 486.434 484.796 492.092 482.773C500.702 481.792 508.051 474.191 511.649 465.548C515.216 456.904 515.647 447.341 515.616 437.993C515.554 387.205 504.484 337 489.847 288.358C486.557 277.447 483.021 266.443 476.686 256.942C467.031 242.413 451.625 232.636 435.912 225.035C421.367 218.016 406.084 212.407 392.093 204.376C392.954 206.215 393.661 208.146 394.307 210.108C395.476 213.786 395.998 217.403 396.521 221.203C396.706 222.521 396.644 223.962 395.814 225.004C395.107 225.893 393.969 226.322 392.862 226.69C386.066 228.988 379.24 231.195 372.352 233.279V233.31C379.086 233.678 385.851 234.046 392.585 234.383C394.153 234.475 396.029 234.72 396.798 236.069C397.198 236.774 397.198 237.632 397.198 238.429C397.136 241.616 396.736 244.804 396.306 247.961C392.708 274.933 387.204 301.66 379.824 327.836C373.397 350.67 360.636 372.708 344.923 390.669C344.892 390.7 344.892 390.7 344.861 390.73C345.261 391.098 345.661 391.466 346.091 391.803C349.258 394.531 352.579 397.136 356.239 399.251C359.406 401.09 362.665 402.071 366.171 402.714C366.509 413.013 366.878 423.311 367.216 433.579C367.339 437.441 367.462 441.303 367.616 445.135C367.647 445.809 367.678 446.483 367.678 447.188C367.739 449.456 367.831 451.724 367.893 453.992C367.954 455.525 367.524 458.192 368.908 459.326C369.646 459.939 371.275 460.031 372.229 460.276C373.489 460.582 374.719 460.919 375.98 461.226C380.992 462.483 386.005 463.739 391.017 464.996C401.041 467.509 411.066 470.023 421.06 472.567C421.859 472.781 422.659 472.965 423.458 473.18C432.406 475.386 441.232 477.624 450.149 479.524Z" fill="#846E64"/>
<path d="M34.4707 207.778C33.333 208.974 33.1177 210.813 33.579 212.407C34.0402 214 35.055 215.349 36.1927 216.544C37.1152 217.495 38.0992 218.383 39.0217 219.364C38.8065 215.288 38.622 211.211 38.4067 207.135C37.1767 206.43 35.4547 206.736 34.4707 207.778Z" fill="#FFC094"/>
<path d="M294.677 457.027C296.153 457.058 297.629 457.088 299.105 457.119C303.533 457.18 307.961 457.242 312.389 457.242C314.603 457.242 316.817 457.242 319.031 457.242C319.923 457.242 320.815 457.364 321.553 456.782C322.168 456.291 322.321 455.495 322.444 454.759C322.598 453.717 322.752 452.705 322.906 451.694C323.213 449.64 323.521 447.556 323.828 445.503C323.92 444.951 323.982 444.399 324.074 443.817C323.859 443.755 323.674 443.664 323.459 443.602C316.848 441.242 311.19 436.951 304.794 434.162C298.09 431.219 290.311 429.748 283.084 428.675C279.671 428.154 276.227 427.817 272.783 427.603C270.784 427.48 268.57 427.327 267.156 425.978L267.033 426.101C267.74 431.587 268.509 437.043 269.308 442.499C269.708 445.288 270.108 448.077 270.538 450.866C270.723 452.123 270.784 453.38 271.492 454.452C271.891 455.035 272.383 455.556 272.998 455.924C273.706 456.383 274.259 456.353 275.059 456.383C276.934 456.445 278.779 456.537 280.655 456.598C284.376 456.721 288.127 456.843 291.848 456.935C292.801 456.996 293.724 457.027 294.677 457.027Z" fill="#A15A44"/>
<path d="M331.485 378.593C336.159 382.455 340.433 386.746 344.923 390.761C344.953 390.73 344.953 390.73 344.984 390.7L344.953 390.669C345.599 382.301 346.306 373.964 347.106 365.628C348.613 349.751 350.365 333.904 352.395 318.089C354.332 302.978 356.485 287.898 358.852 272.849C360.82 260.344 362.911 247.869 365.125 235.394C365.494 233.371 365.863 231.318 366.202 229.295C367.462 222.184 368.785 215.073 370.138 207.993C370.476 206.185 370.783 204.376 371.091 202.568C360.205 211.548 345.814 216.882 331.854 214.859C324.566 213.817 316.971 210.077 313.988 203.549C312.82 212.039 311.436 220.529 310.267 229.019C310.083 230.306 309.898 231.594 309.745 232.912C308.576 241.524 307.469 250.137 306.424 258.75C305.224 268.65 304.117 278.581 303.072 288.511C302.026 298.442 301.073 308.373 300.181 318.334C299.32 328.081 298.552 337.828 297.844 347.575V347.636H335.575V357.475H333.022C332.653 364.494 332.192 371.512 331.639 378.501L331.485 378.593Z" fill="#EBD7CF"/>
<path d="M246.492 577.82C246.553 589.59 246.615 601.329 246.646 613.098L447.689 613.16V577.881C442.738 577.881 426.226 577.881 421.275 577.881C414.448 577.881 407.622 577.881 400.826 577.881C393.846 577.881 386.866 577.881 379.885 577.881C373.151 577.881 366.448 577.881 359.713 577.881C355.808 577.881 350.365 577.881 347.075 575.613C345.23 574.326 344.062 572.395 343.324 570.249C322.721 570.832 314.911 570.924 294.247 570.678C294.031 571.475 293.724 572.303 293.324 573.038C290.434 578.494 284.468 577.912 279.179 577.912C273.49 577.912 267.802 577.912 262.113 577.912C258.853 577.851 249.721 577.82 246.492 577.82Z" fill="#A9735E"/>
<path d="M286.221 239.593C278.749 274.596 278.195 311.867 281.609 347.575H297.844V347.513C298.552 337.766 299.321 328.02 300.182 318.273C301.073 308.342 302.026 298.381 303.072 288.45C304.117 278.519 305.225 268.589 306.424 258.689C307.469 250.076 308.576 241.463 309.745 232.85H309.653C309.284 232.697 308.976 232.544 308.515 232.391C307.193 231.931 305.84 231.471 304.517 230.981C301.565 231.226 298.613 231.471 295.692 231.747C293.263 231.962 290.772 231.778 288.866 233.586C287.236 235.119 286.682 237.417 286.221 239.593Z" fill="#846E64"/>
<path d="M33.8865 162.723C32.4413 163.795 31.6725 165.665 31.734 167.443C31.7648 169.251 32.5028 170.968 33.579 172.439C34.44 173.634 35.5471 174.646 36.6848 175.596C36.4388 171.029 36.162 166.462 35.8853 161.895C35.1473 162.018 34.4708 162.293 33.8865 162.723Z" fill="#FFC094"/>
<path d="M344.984 390.7C360.698 372.739 373.459 350.701 379.886 327.867C387.266 301.661 392.801 274.964 396.368 247.992C396.798 244.835 397.198 241.647 397.259 238.46C397.259 237.663 397.259 236.804 396.86 236.099C396.06 234.72 394.215 234.475 392.647 234.414C385.913 234.046 379.148 233.709 372.413 233.341V233.31C369.984 234.046 367.586 234.751 365.156 235.456C362.942 247.931 360.851 260.405 358.883 272.911C356.516 287.96 354.363 303.04 352.426 318.15C350.396 333.966 348.644 349.812 347.137 365.689C346.337 373.995 345.599 382.332 344.984 390.7Z" fill="#846E64"/>
<path d="M377.579 146.294C377.702 146.325 377.856 146.325 378.041 146.325C379.178 146.294 380.101 145.712 380.962 145.007C386.804 140.225 391.417 134.064 395.291 127.597C398.459 122.356 401.165 116.839 403.44 111.169C404.455 108.625 405.008 105.284 406.484 102.985C407.622 101.177 409.498 99.8281 410.666 97.9891C411.927 96.0274 412.88 93.9126 413.588 91.7364C415.217 86.6484 415.586 81.254 415.802 75.9208C416.324 62.4653 412.973 47.7838 405.131 36.811C402.794 33.5621 399.596 31.0488 396.86 28.1063C380.562 10.6356 354.148 6.8963 343.693 4.38297C340.587 3.64736 337.481 3.00371 334.345 2.48265C321.645 0.398428 308.423 0.490379 296.215 4.47492C272.261 12.2601 254.456 35.9222 253.657 61.0248C253.534 64.7028 253.841 68.6873 256.178 71.5685C257.531 73.2542 259.438 74.3577 261.529 74.8787C264.204 75.5837 267.218 75.3691 269.862 74.4496C272.199 73.622 274.29 72.3041 276.289 70.8329C276.935 70.3731 277.457 69.8214 278.103 70.4957C278.564 70.9555 278.718 71.6604 279.056 72.1815C279.702 73.1623 280.532 74.0512 281.547 74.6948C284.837 76.871 289.173 76.4725 292.955 75.3691C302.242 72.7332 310.237 66.6644 316.664 59.4616C320.63 55.0173 324.044 50.1133 327.272 45.0866C328.472 53.4235 331.27 61.4845 335.329 68.8713C337.666 73.101 340.433 77.0855 343.57 80.7636C345.015 82.4493 347.045 84.0125 348.182 85.9128C349.535 88.1503 349.812 90.6636 350.396 93.1463C350.981 95.7209 351.719 98.2649 352.61 100.778C354.363 105.774 356.669 110.586 359.498 115.061C360.39 116.471 361.743 118.034 363.373 117.667C364.357 117.452 365.033 116.594 365.648 115.797C369.4 110.923 374.658 106.05 380.747 106.847C386.774 107.613 390.802 114.019 390.894 120.057C390.956 124.931 389.018 129.835 385.574 133.298C382.684 136.21 378.779 138.11 374.689 138.631C374.658 140.869 375.242 143.137 376.349 145.099C376.688 145.712 376.964 146.171 377.579 146.294Z" fill="#4D2B1D"/>
<path d="M33.4252 189.388C33.7019 189.695 34.0094 189.971 34.2862 190.216C35.3624 191.197 36.5309 192.055 37.6379 192.974C37.4534 189.726 37.2997 186.477 37.1152 183.228C37.0537 181.91 36.9614 180.561 36.8999 179.243C35.2087 178.538 33.0562 178.967 31.8569 180.347C30.6269 181.756 30.4424 183.902 31.0574 185.68C31.5187 187.12 32.3797 188.346 33.4252 189.388Z" fill="#FFC094"/>
<path d="M33.4252 189.388C31.2419 190.001 29.9505 192.545 30.2272 194.814C30.504 197.174 32.0107 199.166 33.7327 200.79C35.2087 202.17 36.8384 203.365 38.2837 204.744C38.0684 200.821 37.8532 196.898 37.6379 192.975C36.5309 192.024 35.3624 191.166 34.2862 190.216C34.0094 189.971 33.7019 189.695 33.4252 189.388Z" fill="#FFC094"/>
<path d="M366.386 502.175C366.109 502.389 366.171 502.818 366.171 503.125C366.171 504.228 366.171 505.332 366.202 506.435C366.202 508.642 366.232 510.849 366.263 513.056C366.294 517.469 366.325 521.883 366.355 526.297C366.386 530.71 366.417 535.124 366.448 539.538C366.448 540.672 366.478 541.775 366.478 542.909C366.509 547.016 366.632 551.369 369 554.709C371.06 557.621 374.781 559.276 378.348 558.909H412.019C415.586 559.307 419.276 557.621 421.367 554.709C423.735 551.369 423.858 546.986 423.889 542.909C424.012 529.27 424.104 515.6 424.227 501.96C423.827 501.96 423.427 501.96 423.028 501.96C421.921 501.96 420.814 501.96 419.707 501.96C418.015 501.96 416.355 501.96 414.694 501.96C412.603 501.96 410.512 501.96 408.421 501.96C406.054 501.96 403.686 501.96 401.318 501.96C398.827 501.96 396.306 501.96 393.815 501.96C391.324 501.96 388.834 501.96 386.343 501.96C384.006 501.96 381.669 501.96 379.332 501.96C377.272 501.96 375.242 501.96 373.213 501.96C371.614 501.96 370.015 501.96 368.385 501.96C368.077 501.96 367.739 501.96 367.432 501.96C367.032 502.022 366.632 501.96 366.386 502.175Z" fill="#846E64"/>
<path d="M436.127 577.851C437.419 577.851 438.741 577.851 440.032 577.851C441.754 577.851 443.507 577.851 445.229 577.851C446.367 577.851 448.273 578.341 449.073 577.33C449.657 576.625 449.38 575.736 449.411 574.908C449.626 570.249 449.872 524.029 450.118 479.524C441.201 477.624 432.376 475.387 423.55 473.18C422.751 472.965 421.951 472.781 421.152 472.567C411.127 470.053 401.134 467.54 391.109 464.996C386.097 463.739 381.085 462.483 376.072 461.226C374.812 460.92 373.551 460.583 372.321 460.276C371.368 460.031 369.738 459.939 369 459.326C367.647 458.192 368.047 455.525 367.985 453.993C367.924 451.725 367.831 449.456 367.77 447.188C367.739 446.514 367.708 445.84 367.708 445.135H367.678C359.437 444.491 350.98 445.625 342.709 445.901V445.962C342.586 455.832 342.463 465.701 342.34 475.571C342.217 485.44 342.094 495.309 341.94 505.179C341.817 515.048 341.694 524.918 341.571 534.787C341.417 545.545 340.894 556.242 342.524 566.908C342.709 568.012 342.955 569.146 343.324 570.219C344.062 572.364 345.23 574.295 347.075 575.583C350.396 577.881 355.839 577.851 359.713 577.851C366.448 577.851 373.151 577.851 379.885 577.851C386.866 577.851 393.846 577.851 400.826 577.851C407.653 577.851 414.479 577.851 421.275 577.851C426.226 577.851 431.146 577.851 436.127 577.851ZM366.171 503.125C366.171 502.819 366.109 502.39 366.386 502.175C366.601 501.991 367.032 502.022 367.309 502.022C367.616 502.022 367.954 502.022 368.262 502.022C369.861 502.022 371.46 502.022 373.09 502.022C375.119 502.022 377.179 502.022 379.209 502.022C381.546 502.022 383.883 502.022 386.22 502.022C388.711 502.022 391.201 502.022 393.692 502.022C396.214 502.022 398.704 502.022 401.195 502.022C403.563 502.022 405.931 502.022 408.298 502.022C410.389 502.022 412.48 502.022 414.571 502.022C416.232 502.022 417.923 502.022 419.584 502.022C420.691 502.022 421.798 502.022 422.905 502.022C423.304 502.022 423.704 502.022 424.104 502.022C423.981 515.661 423.889 529.331 423.766 542.971C423.735 547.078 423.612 551.43 421.244 554.771C419.184 557.683 415.463 559.338 411.896 558.97H378.225C374.658 559.368 370.968 557.683 368.877 554.771C366.509 551.43 366.386 547.047 366.355 542.971C366.355 541.837 366.325 540.733 366.325 539.599C366.294 535.185 366.263 530.772 366.232 526.358C366.202 521.944 366.171 517.531 366.14 513.117C366.14 510.91 366.109 508.704 366.079 506.497C366.171 505.332 366.171 504.229 366.171 503.125Z" fill="#846E64"/>
<path d="M294.677 457.027C294.677 468.429 294.708 479.831 294.708 491.233C294.708 506.037 294.739 520.841 294.739 535.645C294.739 542.235 294.739 548.825 294.739 555.414C294.739 558.48 294.677 561.545 294.769 564.579C294.831 566.602 294.739 568.686 294.185 570.617C314.818 570.862 322.66 570.77 343.262 570.188C342.893 569.115 342.647 567.981 342.463 566.878C340.833 556.211 341.356 545.514 341.509 534.756C341.632 524.887 341.755 515.017 341.878 505.148C342.001 495.279 342.124 485.409 342.278 475.54C342.401 465.67 342.524 455.801 342.647 445.932V445.87C336.282 446.085 330.009 445.778 324.013 443.755C323.92 444.307 323.859 444.889 323.767 445.441C323.459 447.495 323.152 449.579 322.844 451.632C322.69 452.675 322.537 453.686 322.383 454.698C322.26 455.433 322.137 456.23 321.491 456.72C320.753 457.303 319.861 457.18 318.97 457.18C316.756 457.18 314.542 457.18 312.328 457.18C307.9 457.18 303.472 457.119 299.044 457.058C297.66 457.088 296.153 457.058 294.677 457.027Z" fill="#EBD7CF"/>
<path d="M373.828 184.546L373.459 184.515C373.459 184.668 373.428 184.821 373.397 184.944C372.721 190.86 371.983 196.714 371.06 202.568C370.783 204.376 370.476 206.185 370.107 207.993C368.785 215.073 367.462 222.184 366.171 229.295C365.802 231.318 365.433 233.372 365.095 235.394C367.524 234.689 369.922 233.985 372.352 233.249C379.209 231.165 386.066 228.989 392.862 226.659C393.938 226.291 395.076 225.862 395.814 224.973C396.644 223.931 396.706 222.491 396.521 221.173C395.998 217.372 395.476 213.755 394.307 210.077C393.692 208.116 392.954 206.185 392.093 204.346C388.28 196.039 382.161 189.02 373.828 184.546Z" fill="#846E64"/>
<path d="M263.22 392.876C263.343 394.132 263.466 395.389 263.589 396.646C264.296 396.002 265.127 395.542 266.018 395.266C266.633 395.083 267.248 394.96 267.863 394.899V394.807C265.957 394.745 264.389 393.949 263.282 392.814L263.22 392.876Z" fill="#664D48"/>
<path d="M242.986 501.991C242.956 508.826 242.987 515.692 243.017 522.557C243.079 530.557 243.171 538.557 243.356 546.556C243.448 550.694 243.54 554.801 243.694 558.939L244.278 558.909H266.51C270.077 559.307 273.767 557.621 275.858 554.709C278.226 551.369 278.349 546.986 278.38 542.909C278.503 529.27 278.595 515.6 278.718 501.96L243.233 502.022H242.986V501.991Z" fill="#846E64"/>
<path d="M330.624 377.888C330.931 378.133 331.208 378.347 331.485 378.593L331.608 378.439C332.161 371.421 332.653 364.432 332.992 357.413H260.514C260.883 364.432 261.344 371.451 261.898 378.47C262.082 380.677 262.267 382.853 262.451 385.06C263.589 383.374 265.495 382.179 267.556 381.535C270.6 380.585 273.89 380.738 277.088 380.953C282.346 381.321 287.605 381.78 292.832 382.363C295.446 382.669 298.09 382.976 300.673 383.313C301.965 383.497 303.226 383.681 304.517 383.834C305.347 383.957 306.793 384.478 307.223 383.343C307.654 382.179 305.224 381.045 304.456 380.524C303.226 379.727 301.934 378.991 300.612 378.348C297.998 377.06 295.231 376.079 292.371 375.374C286.159 373.811 279.733 373.443 273.429 372.585C271.522 372.34 269.585 372.003 267.925 371.083C266.233 370.164 264.85 368.509 264.788 366.578C264.696 364.494 266.172 362.593 268.017 361.612C269.862 360.632 271.984 360.386 274.075 360.233C294.247 358.793 314.88 365.229 330.624 377.888Z" fill="#A15A44"/>
<path d="M266.849 420.032C268.571 417.611 271.184 417.273 273.89 417.151C277.365 416.998 280.84 416.967 284.315 417.09C284.561 417.09 284.807 417.09 285.022 417.12C288.005 417.212 290.987 417.427 293.97 417.703C295.446 417.856 296.953 418.009 298.429 418.224C299.259 418.346 300.335 418.714 301.012 418.04C302.98 416.078 296.707 414.025 295.538 413.503C293.048 412.431 290.465 411.573 287.851 410.837C281.516 409.09 274.997 408.201 268.694 406.393C267.248 405.994 265.68 405.381 264.419 404.523C265.004 409.979 265.68 415.465 266.357 420.921C266.51 420.584 266.664 420.308 266.849 420.032Z" fill="#A15A44"/>
<path d="M302.518 86.434C301.411 86.5872 300.643 87.568 300.796 88.6714C300.95 89.7748 301.965 90.5411 303.041 90.3878C308.576 89.6522 314.449 90.5411 319.523 92.8705C319.8 92.9931 320.077 93.0544 320.353 93.0544C321.122 93.0544 321.829 92.6253 322.168 91.8897C322.629 90.8783 322.198 89.7135 321.184 89.2538C315.433 86.5872 308.791 85.6064 302.518 86.434Z" fill="#3D2217"/>
<path d="M309.745 232.912C309.898 231.624 310.083 230.337 310.267 229.019C311.436 220.529 312.82 212.039 313.988 203.549C314.173 202.261 314.357 200.974 314.511 199.687C315.095 195.12 315.741 190.614 316.11 186.047C312.112 188.101 308.453 190.798 305.255 194.016C301.965 197.296 300.151 201.986 297.875 206.031C297.568 206.552 297.291 207.073 297.014 207.595C295.784 209.863 294.585 212.1 293.232 214.276C291.787 216.606 290.403 219.18 289.604 221.816C288.865 224.207 291.202 225.617 293.14 226.475C296.861 228.13 300.673 229.663 304.486 231.042C305.809 231.532 307.131 231.992 308.484 232.452C308.945 232.605 309.283 232.758 309.622 232.912H309.745Z" fill="#846E64"/>
<path d="M267.972 114.644C265.167 113.477 263.842 110.264 265.013 107.468C266.184 104.672 269.407 103.352 272.212 104.519C275.018 105.686 276.342 108.899 275.172 111.695C274.001 114.491 270.777 115.812 267.972 114.644Z" fill="#3D2217"/>
<path d="M303.642 110.314C303.233 107.312 305.344 104.547 308.356 104.14C311.368 103.732 314.142 105.836 314.551 108.838C314.959 111.841 312.849 114.605 309.837 115.013C306.824 115.42 304.051 113.317 303.642 110.314Z" fill="#3D2217"/>
<path d="M304.518 181.082C304.549 181.082 304.61 181.082 304.64 181.112C304.579 181.112 304.549 181.082 304.518 181.082Z" fill="#FFC094"/>
<path d="M357.93 158.156C357.93 158.156 350.089 191.81 314.142 203.886C314.08 203.763 314.019 203.671 313.988 203.549C314.173 202.262 314.357 200.974 314.511 199.687C315.095 195.12 315.741 190.614 316.11 186.048C316.141 185.68 316.171 185.343 316.202 185.005C316.264 183.994 316.356 182.983 316.417 181.971L316.387 181.695C319.308 181.481 322.198 181.021 325.027 180.316C338.096 176.975 349.627 168.73 357.93 158.156Z" fill="#FA886C"/>
<path d="M244.893 374.639L244.954 374.915C244.739 387.175 244.493 399.404 244.278 411.664C239.481 420.063 234.315 428.246 227.673 435.235C221.646 441.579 214.051 446.851 205.81 449.61C225.92 432.629 239.02 394.991 244.893 374.639Z" fill="#756158"/>
<path d="M92.7727 301.569C94.7407 299.607 96.7394 297.645 98.7074 295.714C103.996 290.565 109.347 285.477 114.513 280.267C124.23 270.489 117.342 277.661 130.472 263.838C131.671 265.8 133.27 267.945 136.038 272.91C151.751 301.293 169.494 328.51 187.483 355.544L187.544 355.513C198.676 331.177 209.223 306.595 219.186 281.768C226.012 264.757 232.962 247.072 246.215 234.414C252.242 228.682 259.376 224.176 266.725 220.253C276.35 215.104 286.467 210.844 296.891 207.503L296.983 207.564C295.753 209.832 294.554 212.07 293.201 214.246C291.756 216.575 290.372 219.15 289.573 221.786C288.835 224.176 291.172 225.586 293.109 226.445C296.83 228.1 300.643 229.632 304.456 231.011C301.504 231.257 298.552 231.502 295.63 231.778C293.201 231.992 290.71 231.808 288.804 233.617C287.174 235.149 286.651 237.448 286.19 239.594C278.718 274.596 278.164 311.867 281.578 347.575H257.316V357.413H260.483C260.852 364.432 261.313 371.451 261.867 378.47C262.051 380.677 262.236 382.853 262.42 385.06C261.867 385.857 261.498 386.807 261.406 387.819C261.221 389.504 261.898 391.405 263.22 392.815L263.158 392.876C263.281 394.133 263.404 395.389 263.527 396.646C262.42 397.596 261.652 398.945 261.713 400.416C261.775 402.163 262.882 403.512 264.358 404.492C264.942 409.948 265.618 415.434 266.295 420.89C265.588 422.484 265.711 424.446 266.818 425.733C266.91 425.825 266.971 425.917 267.064 426.009L266.941 426.131C267.648 431.618 268.417 437.074 269.216 442.529C269.616 445.319 270.016 448.108 270.446 450.897C270.631 452.154 270.692 453.41 271.399 454.483C271.799 455.065 272.291 455.586 272.906 455.954C273.613 456.414 274.167 456.383 274.966 456.414C276.842 456.475 278.687 456.567 280.563 456.629C284.284 456.751 288.035 456.874 291.756 456.966C292.709 456.996 293.632 456.996 294.585 457.027C294.585 468.429 294.616 479.831 294.616 491.233C294.616 506.037 294.646 520.841 294.646 535.645C294.646 542.235 294.646 548.825 294.646 555.415C294.646 558.48 294.585 561.545 294.677 564.579C294.739 566.602 294.646 568.686 294.093 570.617C293.878 571.414 293.57 572.242 293.17 572.977C290.28 578.433 284.314 577.851 279.025 577.851C273.337 577.851 267.648 577.851 261.959 577.851C258.73 577.851 255.502 577.851 252.273 577.851C251.689 577.851 251.104 577.851 250.52 577.851C249.567 577.851 248.614 577.851 247.63 577.851C246.892 577.851 246.031 577.973 245.323 577.697C244.216 577.268 244.186 576.073 244.155 575.061C244.093 573.529 244.032 572.027 243.97 570.495C243.817 566.633 243.663 562.771 243.571 558.878L244.155 558.847H266.387C269.954 559.246 273.644 557.56 275.735 554.648C278.103 551.307 278.226 546.924 278.257 542.848C278.38 529.208 278.472 515.538 278.595 501.899L243.109 501.96H242.894C242.894 500.826 242.894 499.692 242.894 498.528C242.925 490.528 242.986 482.528 243.109 474.528C243.202 466.529 243.325 458.529 243.478 450.529C243.601 442.591 243.755 434.622 243.909 426.653C244.001 421.626 244.093 416.63 244.186 411.603C244.401 399.343 244.647 387.114 244.862 374.853L244.801 374.578C238.927 394.929 225.828 432.568 205.717 449.518C200.428 451.295 194.863 452.031 189.266 451.295C178.75 449.947 169.402 443.633 162.298 435.756C155.226 427.879 150.121 418.5 145.078 409.182C139.912 399.619 134.746 390.025 129.55 380.462C124.876 371.819 120.202 363.145 115.589 354.44C110.884 345.521 106.272 336.541 101.844 327.468C99.6299 322.932 97.4774 318.365 95.3864 313.798C94.3409 311.499 93.2954 309.2 92.2807 306.902C91.6349 305.155 91.1737 303.162 92.7727 301.569Z" fill="#846E64"/>
<path d="M58.056 252.068C58.1483 252.068 58.2098 252.068 58.302 252.068C65.2208 252.068 72.1702 252.191 79.089 252.375C81.1185 252.436 83.1788 252.467 85.2083 252.497C77.6438 254.52 69.9563 256.145 62.238 257.432C60.6698 255.807 59.2245 254.06 58.056 252.068Z" fill="#FA886C"/>
<path d="M85.2082 252.497C86.1307 252.528 87.0532 252.528 87.9757 252.559C91.2352 252.651 94.464 252.252 96.7087 249.616C98.2462 247.808 98.892 245.417 98.9535 243.057C99.015 241.034 98.3692 239.103 98.3385 237.111C98.3077 235.67 98.5845 234.291 98.4922 232.82C98.1847 228.682 97.8465 224.514 97.4775 220.376C96.7702 212.713 95.94 205.02 95.0175 197.357C94.4025 196.622 93.7567 195.947 93.111 195.273C89.2365 191.105 85.7617 186.568 82.779 181.726C81.4567 179.58 80.1652 177.251 80.0422 174.737C79.9192 172.193 81.303 169.435 83.763 168.761C86.7457 167.933 89.5747 170.385 91.6657 172.653C92.6497 173.726 93.6645 174.799 94.6485 175.871C97.9387 179.458 101.137 183.074 104.335 186.752C108.67 191.748 112.914 196.898 115.958 202.782C123.769 217.924 122.539 235.946 126.567 252.467C128.227 259.24 129.088 261.386 130.595 263.807C117.434 277.631 124.353 270.428 114.636 280.236C109.439 285.477 104.119 290.534 98.8305 295.684L98.7997 295.653C93.8797 286.642 86.961 278.335 79.5195 271.347C74.1997 266.351 67.4655 262.643 62.361 257.432C69.987 256.175 77.6437 254.52 85.2082 252.497Z" fill="#FFC094"/>
<path d="M367.309 433.61C367.432 437.472 367.555 441.334 367.708 445.165H367.678C364.88 444.951 362.051 444.951 359.222 445.043C362.266 432.047 364.664 418.867 366.356 405.626C366.663 414.944 367.001 424.292 367.309 433.61Z" fill="#FA886C"/>
<path d="M263.589 396.646C264.296 396.002 265.126 395.542 266.018 395.267C266.633 395.083 267.248 394.96 267.863 394.899V394.807C265.957 394.746 264.388 393.949 263.281 392.815C261.928 391.435 261.283 389.535 261.467 387.819C261.59 386.776 261.928 385.857 262.482 385.06C263.62 383.374 265.526 382.179 267.586 381.535C270.631 380.585 273.921 380.738 277.119 380.953C282.377 381.321 287.635 381.78 292.863 382.363C295.477 382.669 298.121 382.976 300.704 383.313C301.996 383.497 303.256 383.681 304.548 383.834C305.378 383.957 306.823 384.478 307.254 383.344C307.684 382.179 305.255 381.045 304.486 380.524C303.256 379.727 301.965 378.991 300.643 378.348C298.029 377.06 295.261 376.079 292.402 375.375C286.19 373.811 279.763 373.444 273.46 372.585C271.553 372.34 269.616 372.003 267.955 371.083C266.264 370.164 264.88 368.509 264.819 366.578C264.727 364.494 266.203 362.593 268.048 361.613C269.893 360.632 272.014 360.387 274.105 360.233C294.277 358.793 314.911 365.229 330.624 377.888C330.931 378.133 331.208 378.348 331.485 378.593C336.159 382.455 340.433 386.746 344.923 390.761C345.322 391.129 345.722 391.497 346.153 391.834C349.32 394.562 352.641 397.167 356.3 399.282C359.467 401.121 362.727 402.102 366.232 402.745C366.263 403.695 366.294 404.646 366.325 405.626C364.633 418.867 362.266 432.047 359.191 445.043C353.686 445.227 348.151 445.778 342.678 445.932C336.313 446.146 330.04 445.84 324.043 443.817C323.828 443.755 323.644 443.663 323.428 443.602C316.817 441.242 311.159 436.951 304.763 434.162C298.06 431.219 290.28 429.748 283.054 428.675C279.64 428.154 276.196 427.817 272.752 427.603C270.754 427.48 268.54 427.327 267.125 425.978C267.033 425.886 266.941 425.794 266.879 425.702C265.741 424.415 265.649 422.453 266.356 420.86C266.479 420.553 266.664 420.247 266.848 419.971C268.57 417.549 271.184 417.212 273.89 417.09C277.365 416.936 280.84 416.906 284.314 417.028C284.56 417.028 284.806 417.028 285.022 417.059C288.004 417.151 290.987 417.365 293.97 417.641C295.446 417.795 296.953 417.948 298.429 418.162C299.259 418.285 300.335 418.653 301.012 417.978C302.98 416.017 296.707 413.963 295.538 413.442C293.047 412.369 290.464 411.511 287.851 410.776C281.516 409.029 274.997 408.14 268.693 406.331C267.248 405.933 265.68 405.32 264.419 404.462C262.943 403.45 261.867 402.132 261.775 400.385C261.744 398.975 262.482 397.627 263.589 396.646Z" fill="#FFC094"/>
<path d="M432.499 336.111L435.297 411.511L447.997 412.86L432.499 336.111Z" fill="#756158"/>
<path d="M93.0802 204.959C89.7285 201.005 86.715 196.744 84.1012 192.27C82.287 189.204 80.6572 185.956 80.1037 182.431C79.827 180.592 79.8885 178.63 80.3497 176.822C80.8417 178.538 81.7642 180.163 82.7175 181.726C85.485 186.17 88.6522 190.369 92.127 194.262L92.2807 198.553C92.5882 200.698 92.8342 202.813 93.0802 204.959Z" fill="#E3E3E3"/>
<path d="M80.1037 182.431C80.6572 185.956 82.287 189.205 84.1012 192.27C86.715 196.744 89.7285 201.005 93.0802 204.959C93.6645 210.261 94.218 215.502 94.6792 220.621C95.079 224.881 95.4172 229.05 95.694 233.034C95.7247 233.647 95.694 234.291 95.6325 234.996C95.571 235.67 95.5095 236.406 95.5402 237.234C95.571 238.337 95.7248 239.318 95.8785 240.299C96.0323 241.279 96.186 242.199 96.1552 243.057C96.0937 245.049 95.5402 246.766 94.587 247.9C93.2955 249.402 91.389 249.953 88.0373 249.862C86.4383 249.8 84.8085 249.77 83.1787 249.739C81.8257 249.708 80.5035 249.678 79.1505 249.647C72.2317 249.432 67.9882 249.34 61.0695 249.34H59.409C57.1335 249.34 55.473 249.31 53.136 249.463C51.6908 249.555 49.7227 249.432 48.462 248.36C47.6932 247.716 47.109 246.613 46.8322 245.264C46.494 243.67 46.4017 241.8 46.3095 240.023L46.248 239.103C46.1557 237.448 46.0942 235.793 46.002 234.169C45.9712 233.218 45.9097 232.268 45.879 231.349C45.6945 227.364 45.51 223.38 45.2948 219.395V219.334C45.0795 215.257 44.895 211.181 44.6797 207.104L44.4952 203.273C44.3107 199.84 44.1262 196.438 43.9417 193.005L43.911 192.515C43.7572 189.419 43.5727 186.323 43.419 183.258L43.2037 179.274C43.1422 178.048 43.0807 176.822 42.9885 175.596C42.7425 171.029 42.4657 166.462 42.189 161.895L42.1582 161.282C42.066 159.933 42.0045 158.585 41.9123 157.206C41.82 155.826 41.7277 154.447 41.6047 153.068C41.3895 150.248 41.1435 147.367 41.1742 144.578C41.1742 144.057 41.1742 143.536 41.1742 143.014C41.1435 140.072 41.1742 138.356 42.4657 136.639C44.6797 133.666 48.8002 133.85 54.3967 134.432C55.227 134.524 56.0572 134.616 56.8567 134.678C62.853 135.137 65.6512 135.689 72.57 136.333C73.4002 136.425 74.292 136.455 75.2145 136.517C78.843 136.762 82.9635 137.007 85.1775 138.846C86.592 140.041 87.7298 141.85 88.4985 144.149C89.79 148.102 90.0668 152.577 90.3435 156.899C90.4358 158.248 90.4972 159.596 90.6202 160.945L91.266 168.546L91.4198 172.5C89.3595 170.324 86.6535 168.148 83.8245 168.914C81.3645 169.588 79.9807 172.347 80.1037 174.891C80.1345 175.596 80.2575 176.301 80.4727 176.975C79.8885 178.63 79.827 180.592 80.1037 182.431Z" fill="white"/>
<path d="M92.3114 198.522L92.1577 194.231C92.4652 194.568 92.7727 194.905 93.0802 195.242C93.7259 195.917 94.3717 196.622 94.9867 197.327C95.448 201.066 95.8784 204.775 96.2782 208.514C95.1712 207.349 94.1257 206.154 93.0802 204.928C92.8342 202.813 92.5882 200.698 92.3114 198.522Z" fill="#292710"/>
<path d="M36.6848 134.862C40.5593 129.682 47.97 131.337 53.505 131.766C59.9317 132.256 66.3277 132.808 72.7237 133.421C77.121 133.85 83.3018 133.635 86.838 136.578C88.8675 138.264 90.1897 140.654 91.02 143.137C92.865 148.654 92.8035 154.784 93.2955 160.546C93.726 165.665 94.1565 170.753 94.587 175.872C93.603 174.799 92.619 173.726 91.6043 172.653C91.512 172.561 91.389 172.439 91.2968 172.347L91.143 168.393L90.4973 160.792C90.3743 159.474 90.3128 158.125 90.2205 156.746C89.9438 152.424 89.667 147.919 88.3755 143.995C87.6375 141.727 86.469 139.888 85.0545 138.693C82.8712 136.854 78.72 136.609 75.0915 136.363C74.169 136.302 73.2772 136.241 72.447 136.179C65.559 135.536 62.7607 135.015 56.7337 134.524C55.9342 134.463 55.1347 134.371 54.2737 134.279C48.6772 133.697 44.5567 133.513 42.3427 136.486C41.0512 138.202 41.0205 139.949 41.0512 142.861C41.0512 143.382 41.0512 143.903 41.0512 144.424C41.0205 147.183 41.2665 150.095 41.4818 152.915C41.6048 154.294 41.697 155.673 41.7893 157.052C41.8815 158.401 41.943 159.75 42.0352 161.129L42.066 161.742C42.3428 166.309 42.6195 170.876 42.8655 175.443C42.9578 176.669 43.0192 177.895 43.0807 179.121L43.296 183.105C43.4805 186.201 43.6343 189.296 43.788 192.361L43.8187 192.852C44.0032 196.285 44.1878 199.687 44.3723 203.12L44.5568 206.951C44.772 211.028 44.9873 215.104 45.1718 219.181V219.242C45.387 223.226 45.5715 227.211 45.756 231.195C45.8175 232.146 45.8482 233.096 45.879 234.015C45.9405 235.67 46.0327 237.295 46.125 238.95L46.1865 239.869C46.2787 241.678 46.371 243.517 46.7093 245.111C46.986 246.459 47.5702 247.563 48.339 248.206C49.5997 249.279 51.5985 249.402 53.013 249.31C55.35 249.157 57.0105 249.187 59.286 249.187H60.9465C67.8652 249.187 72.1087 249.31 79.0275 249.494C80.3497 249.524 81.7027 249.555 83.0557 249.586C84.6855 249.616 86.3153 249.647 87.9143 249.708C91.266 249.8 93.1725 249.248 94.464 247.747C95.448 246.613 96.0015 244.896 96.0323 242.904C96.063 242.046 95.9093 241.126 95.7555 240.145C95.6018 239.165 95.448 238.184 95.4173 237.08C95.3865 236.283 95.448 235.517 95.5095 234.843C95.571 234.169 95.6018 233.494 95.571 232.881C95.2943 228.897 94.956 224.728 94.5562 220.468C94.095 215.349 93.5415 210.108 92.9573 204.806C94.0028 206.032 95.0482 207.227 96.1552 208.392C96.5857 212.315 96.9855 216.269 97.3237 220.192C97.6927 224.33 98.031 228.498 98.3385 232.636C98.4615 234.107 98.154 235.487 98.1848 236.927C98.2463 238.919 98.8613 240.85 98.7998 242.873C98.7383 245.233 98.0925 247.655 96.555 249.432C94.2795 252.068 91.0507 252.467 87.822 252.375C84.87 252.283 81.918 252.252 78.9352 252.191C72.0165 251.976 65.067 251.884 58.1482 251.884C58.056 251.884 57.9945 251.884 57.9023 251.884C55.1655 251.884 52.398 251.823 49.6612 252.007C47.3242 252.16 44.8028 251.792 42.9885 250.229C41.6355 249.065 40.836 247.348 40.467 245.601C40.0057 243.486 39.9442 241.126 39.8212 238.981C39.6675 236.375 39.5753 233.77 39.4523 231.195C39.2678 227.18 39.0833 223.165 38.868 219.181C38.6528 215.104 38.4683 211.028 38.253 206.951C38.2223 206.185 38.1915 205.388 38.13 204.622C37.9147 200.698 37.6995 196.775 37.4843 192.852C37.2998 189.603 37.146 186.354 36.9615 183.105C36.9 181.787 36.8077 180.439 36.7462 179.121C36.6847 177.895 36.6233 176.699 36.531 175.473C36.285 170.906 36.0082 166.339 35.7315 161.772C35.6392 160.209 35.547 158.646 35.4548 157.114C35.2088 152.884 34.686 148.562 34.7168 144.332C34.8705 140.992 34.44 137.835 36.6848 134.862Z" fill="#292710"/>
<path d="M262.482 87.4759C264.788 86.0047 267.679 85.1771 270.846 85.0852C273.306 85.0239 275.889 85.3917 279.025 86.2192C280.102 86.4951 280.717 87.5985 280.44 88.6713C280.163 89.744 279.056 90.357 277.98 90.0812C275.243 89.3456 273.029 89.0084 270.969 89.0697C268.57 89.131 266.387 89.744 264.696 90.8168C264.358 91.0313 263.989 91.1233 263.62 91.1233C262.943 91.1233 262.328 90.7861 261.928 90.2038C261.283 89.3149 261.559 88.0889 262.482 87.4759Z" fill="#4D2B1D"/>
<path d="M281.608 347.575H297.875H310.606L313.373 341.966H328.01V347.575H335.575V357.413H333.022H260.545H257.377V347.575H281.608Z" fill="white"/>
<path d="M375.673 130.877C375.857 130.877 376.011 130.846 376.165 130.754C376.995 130.264 378.779 129.252 378.963 127.475C379.025 126.831 378.901 126.157 378.563 125.391C378.01 124.195 377.179 123.122 376.103 122.325L376.072 122.295C376.042 122.264 375.98 122.234 375.949 122.203C375.949 122.203 375.949 122.203 375.949 122.172C375.98 121.253 376.503 120.241 377.518 119.199C378.41 118.28 379.24 117.728 380.101 117.544C380.992 117.329 381.946 117.575 382.407 118.157C382.745 118.586 383.391 118.678 383.822 118.341C384.252 118.004 384.344 117.36 384.006 116.931C383.053 115.736 381.3 115.184 379.639 115.582C378.409 115.858 377.241 116.594 376.072 117.789C374.689 119.199 373.951 120.67 373.92 122.111C373.92 122.356 373.92 122.663 374.074 123C374.289 123.46 374.627 123.735 374.873 123.889C375.703 124.502 376.319 125.299 376.749 126.187C376.934 126.617 377.026 126.954 376.995 127.199C376.903 127.873 376.072 128.456 375.181 128.946C374.689 129.222 374.535 129.835 374.812 130.325C374.996 130.693 375.335 130.877 375.673 130.877Z" fill="#F38857"/>
<path d="M291.08 144.394C291.787 144.394 292.463 144.332 293.171 144.21C296.861 143.535 300.274 141.145 302.549 137.681C302.857 137.222 302.734 136.578 302.242 136.271C301.781 135.965 301.135 136.087 300.827 136.578C298.859 139.582 295.938 141.635 292.801 142.218C289.45 142.831 285.914 141.605 283.976 139.152C283.638 138.723 282.992 138.631 282.562 138.969C282.131 139.306 282.039 139.949 282.377 140.378C284.345 142.922 287.697 144.394 291.08 144.394Z" fill="#F38857"/>
<path d="M426.931 302.902L449.493 412.966L447.504 413.371L424.942 303.307L426.931 302.902Z" fill="#5F4D45"/>
<path d="M448.55 480.229L448.981 478.237C440.555 476.398 432.038 474.252 423.827 472.199L372.598 459.326C372.29 459.264 371.952 459.203 371.583 459.142C370.937 459.019 369.984 458.866 369.677 458.59C368.969 458.008 369 456.322 369.031 455.096C369.031 454.698 369.062 454.33 369.031 453.993L368.785 447.188L366.755 447.25L367.001 454.054C367.001 454.33 367.001 454.667 367.001 455.035C366.971 456.69 366.909 458.927 368.385 460.123C369.123 460.736 370.261 460.92 371.245 461.103C371.552 461.165 371.86 461.226 372.106 461.257L423.335 474.13C431.546 476.214 440.063 478.36 448.55 480.229Z" fill="#5F4D45"/>
<path d="M496.49 437.901L498.181 436.798C491.262 426.224 480.1 420.523 471.951 417.611C461.619 413.933 450.641 412.523 440.002 411.174L368.877 402.102C367.893 401.979 366.971 401.826 366.079 401.673L365.71 403.665C366.632 403.849 367.586 403.971 368.6 404.125L439.725 413.197C450.242 414.546 461.127 415.925 471.244 419.542C479.147 422.331 489.878 427.787 496.49 437.901Z" fill="#5F4D45"/>
<path d="M305.624 400.508C306.147 400.508 306.578 400.109 306.639 399.588C306.701 399.037 306.301 398.546 305.717 398.485C297.66 397.657 289.511 396.493 281.609 395.389C278.841 394.991 276.043 394.592 273.275 394.225C271.031 393.918 268.263 393.55 265.68 394.347C265.157 394.5 264.85 395.083 265.004 395.635C265.157 396.156 265.742 396.462 266.295 396.309C268.448 395.635 270.846 395.972 272.999 396.278C275.766 396.646 278.534 397.044 281.332 397.443C289.235 398.577 297.414 399.742 305.501 400.569C305.563 400.477 305.594 400.508 305.624 400.508Z" fill="#F38857"/>
<path d="M469.307 415.159C477.64 413.35 485.789 413.596 492.953 413.841C494.276 413.871 495.567 413.933 496.828 413.933L496.859 411.91C495.598 411.879 494.337 411.848 493.015 411.818C485.696 411.603 477.425 411.358 468.876 413.197L469.307 415.159Z" fill="#5F4D45"/>
<path d="M365.126 236.467C374.504 233.739 383.975 230.766 393.231 227.64C394.277 227.272 395.722 226.782 396.644 225.648C397.505 224.544 397.813 223.012 397.567 221.081C396.983 216.912 396.46 213.449 395.322 209.832C394.676 207.809 393.908 205.817 393.047 203.947L391.202 204.805C392.032 206.614 392.77 208.514 393.385 210.476C394.492 213.939 394.984 217.341 395.568 221.387C395.753 222.736 395.599 223.778 395.076 224.422C394.553 225.065 393.662 225.402 392.616 225.77C383.391 228.897 373.982 231.87 364.603 234.567L365.126 236.467Z" fill="#5F4D45"/>
<path d="M345.661 391.497C362.174 372.616 374.658 350.119 380.87 328.142C388.25 301.967 393.815 275.056 397.382 248.114C397.844 244.712 398.213 241.617 398.274 238.46C398.305 237.509 398.274 236.498 397.751 235.578C396.614 233.586 393.969 233.433 392.708 233.372L372.475 232.299L372.352 234.322L392.585 235.395C393.969 235.456 395.445 235.67 395.968 236.59C396.245 237.05 396.245 237.724 396.245 238.429C396.183 241.494 395.814 244.498 395.353 247.869C391.786 274.688 386.251 301.538 378.902 327.621C372.782 349.322 360.421 371.543 344.123 390.179L345.661 391.497Z" fill="#5F4D45"/>
<path d="M245.262 412.461L246.031 371.359C246.584 341.291 247.169 310.181 249.567 279.684L247.538 279.531C245.108 310.089 244.555 341.23 243.971 371.329L243.202 412.431L245.262 412.461Z" fill="#5F4D45"/>
<path d="M280.625 347.667L282.654 347.483C278.872 308.067 280.409 271.838 287.236 239.808C287.728 237.571 288.22 235.609 289.573 234.353C290.895 233.096 292.617 233.004 294.585 232.881C294.985 232.851 295.385 232.82 295.784 232.789L304.671 232.023L304.487 230L295.6 230.767C295.231 230.797 294.831 230.828 294.462 230.858C292.279 230.981 290.034 231.134 288.189 232.881C286.283 234.69 285.698 237.418 285.268 239.41C278.349 271.593 276.812 308.036 280.625 347.667Z" fill="#5F4D45"/>
<path d="M106.026 236.467C106.241 236.467 106.457 236.406 106.641 236.253C107.072 235.916 107.164 235.272 106.826 234.843C101.291 227.732 98.3078 218.476 98.7076 209.495C98.7383 209.005 98.7691 208.545 98.7998 208.055C98.9536 205.572 99.1073 202.997 98.1848 200.576C97.6928 199.289 96.9241 198.093 95.7248 196.653C95.3558 196.224 94.7101 196.162 94.2796 196.53C93.8491 196.898 93.7876 197.542 94.1566 197.971C95.2328 199.227 95.8786 200.239 96.2783 201.281C97.0471 203.304 96.9241 205.541 96.7703 207.932C96.7396 208.422 96.7088 208.913 96.6781 209.403C96.2476 218.874 99.3841 228.621 105.196 236.1C105.411 236.345 105.719 236.467 106.026 236.467Z" fill="#F38857"/>
<path d="M195.878 369.858L197.569 368.724L197.507 368.632C194.463 364.095 191.419 359.528 188.405 354.992L186.714 356.126C189.758 360.693 192.803 365.229 195.816 369.766L195.878 369.858Z" fill="#5F4D45"/>
<path d="M202.858 402.745H204.887C204.826 393.121 203.442 383.528 200.705 374.302L198.737 374.884C201.413 383.895 202.796 393.305 202.858 402.745Z" fill="#5F4D45"/>
<path d="M208.445 373.818L224.083 390.168L222.614 391.564L206.977 375.214L208.445 373.818Z" fill="#5F4D45"/>
<path d="M413.065 559.951C416.632 559.951 420.107 558.204 422.198 555.292C424.658 551.859 424.873 547.66 424.904 542.909L425.242 500.918L367.309 501.01H367.186C366.817 501.01 366.233 500.98 365.741 501.378C365.126 501.899 365.126 502.635 365.156 503.033V503.125C365.156 503.861 365.156 504.596 365.187 505.332L365.495 542.879C365.525 547.63 365.771 551.829 368.201 555.261C370.476 558.48 374.504 560.288 378.41 559.89H411.958C412.327 559.92 412.696 559.951 413.065 559.951ZM423.182 502.941L422.874 542.879C422.843 547.262 422.628 551.154 420.537 554.097C418.692 556.702 415.31 558.204 412.142 557.867H412.019H378.256C375.089 558.204 371.706 556.702 369.861 554.097C367.77 551.124 367.555 547.262 367.524 542.879L367.217 505.332C367.217 504.596 367.217 503.861 367.186 503.125V503.064C367.217 503.064 367.278 503.064 367.309 503.064L423.182 502.941Z" fill="#5F4D45"/>
<path d="M267.525 559.951C271.092 559.951 274.567 558.204 276.658 555.292C279.118 551.859 279.333 547.66 279.364 542.909L279.702 501.96L277.673 501.93L277.334 542.879C277.304 547.262 277.088 551.154 274.997 554.097C273.152 556.702 269.77 558.204 266.603 557.867H266.48H244.247V559.889H266.418C266.818 559.92 267.187 559.951 267.525 559.951Z" fill="#5F4D45"/>
<path d="M278.686 500.908L278.689 502.931L243.204 502.993L243.2 500.97L278.686 500.908Z" fill="#5F4D45"/>
<path d="M309.222 233.801L310.083 231.962C309.714 231.808 309.376 231.625 308.822 231.441C303.656 229.694 298.521 227.701 293.57 225.494C290.403 224.085 290.341 222.859 290.587 222.062C291.233 219.916 292.371 217.587 294.124 214.736C295.262 212.867 296.307 210.936 297.322 209.097L297.906 208.024L296.123 207.043L295.538 208.116C294.493 210.047 293.509 211.855 292.371 213.663C290.526 216.667 289.357 219.119 288.619 221.449C287.881 223.839 289.265 225.801 292.709 227.333C297.722 229.571 302.918 231.594 308.146 233.341C308.607 233.525 308.914 233.647 309.222 233.801Z" fill="#5F4D45"/>
<path d="M37.392 193.802C37.6995 193.802 37.9763 193.679 38.1608 193.434C38.5298 193.005 38.4683 192.362 38.0378 191.994C37.6995 191.718 37.3305 191.411 36.9615 191.135C36.285 190.614 35.6085 190.063 34.9628 189.48C34.563 189.143 34.2248 188.806 33.9173 188.469C33.5483 188.07 32.9025 188.04 32.472 188.408C32.0723 188.775 32.0416 189.419 32.4106 189.848C32.7488 190.216 33.1485 190.614 33.579 190.982C34.2555 191.595 34.9628 192.178 35.67 192.729C36.0083 193.005 36.3773 193.281 36.7156 193.557C36.9308 193.741 37.146 193.802 37.392 193.802Z" fill="#F38857"/>
<path d="M251.289 318.457L252.304 318.426C257.993 318.181 262.021 318.12 265.926 318.058C269.831 317.997 273.859 317.936 279.579 317.691L279.487 315.668C273.798 315.913 269.77 315.974 265.865 316.036C262.205 316.097 258.423 316.158 253.226 316.373L253.103 313.308C258.3 313.093 262.236 312.971 266.018 312.879C270.077 312.756 274.259 312.633 279.979 312.388L279.886 310.365C274.198 310.61 269.985 310.733 265.957 310.856C261.898 310.978 257.716 311.101 251.996 311.346L250.981 311.377L251.289 318.457Z" fill="#5F4D45"/>
<path d="M283.208 130.387C283.577 130.387 283.946 130.172 284.13 129.835C284.376 129.344 284.161 128.731 283.669 128.486C282.101 127.72 280.871 126.218 280.256 124.348C279.671 122.479 279.825 120.548 280.655 119.015C281.27 117.912 282.131 116.992 283.085 116.012C283.73 115.337 284.438 114.602 285.022 113.805C287.174 110.954 288.035 107.184 287.359 103.69C287.267 103.138 286.713 102.771 286.16 102.893C285.606 102.985 285.237 103.537 285.36 104.089C285.944 107.031 285.206 110.219 283.392 112.609C282.869 113.314 282.254 113.958 281.609 114.632C280.625 115.674 279.579 116.747 278.872 118.065C277.765 120.088 277.58 122.601 278.318 124.992C279.087 127.383 280.686 129.314 282.746 130.325C282.9 130.356 283.054 130.387 283.208 130.387Z" fill="#F38857"/>
</g>
<defs>
<clipPath id="clip0_13_328">
<rect width="615" height="613.006" fill="white" transform="matrix(-1 0 0 1 615 0)"/>
</clipPath>
</defs>
</svg>
